# xmcd CD database file
#
# Track frame offsets:
#	150
#	18849
#	40554
#	65251
#	85103
#	110051
#	135593
#	156188
#	179342
#	203280
#	229155
#
# Disc length: 3319 seconds
#
# Revision: 0
# Processed by: cddbd v1.5.2PL0 Copyright (c) Steve Scherf et al.
# Submitted via: CDex 1.82
#
DISCID=7f0cf50b
DTITLE=triosence - Scorpio Rising
DYEAR=2019
DGENRE=Jazz
TTITLE0=triosence - Arabian Princess
TTITLE1=triosence - Taurus Line
TTITLE2=triosence - Scorpio Rising
TTITLE3=triosence - Cruise Control
TTITLE4=triosence - The Stars, The Sun And The Moon
TTITLE5=triosence - Waiting
TTITLE6=triosence - Jasmine
TTITLE7=triosence - When She's Angry
TTITLE8=triosence - Going In Circles
TTITLE9=triosence - Seu Dito
TTITLE10=triosence - Can't Let Go
EXTD=YEAR: 2019
EXTT0=
EXTT1=
EXTT2=
EXTT3=
EXTT4=
EXTT5=
EXTT6=
EXTT7=
EXTT8=
EXTT9=
EXTT10=
PLAYORDER=
